<?xml version="1.0" encoding="utf-8"?><svg xmlns="http://www.w3.org/2000/svg" xmlns:xlink="http://www.w3.org/1999/xlink"><symbol viewBox="0 0 40 73" id="carousel-left" xmlns="http://www.w3.org/2000/svg"><path fill-rule="evenodd" d="M38.026 72.979L.005 36.498 38.026.018l1.969 2.004L4.066 36.498l35.929 34.479-1.969 2.002z"/></symbol><symbol viewBox="0 0 40 73" id="carousel-right" xmlns="http://www.w3.org/2000/svg"><path fill-rule="evenodd" d="M1.974 72.979l38.021-36.481L1.974.018.005 2.022l35.929 34.476L.005 70.977l1.969 2.002z"/></symbol><symbol viewBox="0 0 12 12" id="comment" xmlns="http://www.w3.org/2000/svg"><path fill-rule="evenodd" d="M10.5 8.998H7.06l-2.78 2.781A.75.75 0 013 11.248v-2.25H1.5A1.5 1.5 0 010 7.499v-6a1.5 1.5 0 011.5-1.5h9a1.5 1.5 0 011.5 1.5v6a1.5 1.5 0 01-1.5 1.499zm0-6.749a.75.75 0 00-.75-.75h-7.5a.75.75 0 00-.75.75v4.499a.75.75 0 00.75.751h1.5a.75.75 0 01.75.749v1.19l1.719-1.72a.748.748 0 01.531-.219h3a.75.75 0 00.75-.751V2.249z"/></symbol><symbol viewBox="0 0 16 16" id="dribbble" xmlns="http://www.w3.org/2000/svg"><path fill-rule="evenodd" d="M8-.002a8.002 8.002 0 10.001 16.003A8.002 8.002 0 008-.002zm4.902 4.149a6.196 6.196 0 011.331 3.559 12.376 12.376 0 00-2.552-.285h-.006c-.64 0-1.242.058-1.808.158a28.64 28.64 0 00-.418-.972c1.262-.553 2.473-1.341 3.453-2.46zM8 1.757a6.2 6.2 0 013.892 1.372c-.818.98-1.898 1.689-3.065 2.191-.82-1.586-1.613-2.72-2.154-3.414A6.182 6.182 0 018 1.757zm-2.757.651c.433.512 1.301 1.638 2.227 3.395-1.884.561-3.782.693-4.93.693l-.097-.001h-.001c-.193 0-.359-.003-.498-.007a6.264 6.264 0 013.299-4.08zM1.757 8l.003-.09c.178.006.407.012.682.012h.002c1.254-.008 3.445-.113 5.665-.814.122.265.241.54.36.827a9.851 9.851 0 00-3.514 2.072 10.708 10.708 0 00-1.722 2.008A6.206 6.206 0 011.757 8zM8 14.242a6.201 6.201 0 01-3.709-1.23 9.09 9.09 0 011.448-1.783 8.49 8.49 0 013.244-1.963 30.714 30.714 0 011.232 4.568A6.218 6.218 0 018 14.242zm3.533-1.108A31.986 31.986 0 0010.38 8.94a8.885 8.885 0 011.281-.092h.018c.744 0 1.563.093 2.45.295a6.241 6.241 0 01-2.596 3.991z"/></symbol><symbol viewBox="0 0 11 23" id="fb" xmlns="http://www.w3.org/2000/svg"><path fill-rule="evenodd" d="M11.008 7.979h-4V5.061c0-.897.925-1.106 1.356-1.106h2.583V.015L7.99.001c-4.045 0-4.966 2.939-4.966 4.82v3.158H.091v4.06h2.933v10.96h3.984v-10.96h3.383l.617-4.06z"/></symbol><symbol viewBox="0 0 17 17" id="google" xmlns="http://www.w3.org/2000/svg"><path fill-rule="evenodd" d="M15.015 3.992v1.973h-1.017V3.992h-1.993V2.969h1.993V.999h1.017v1.97h1.959v1.023h-1.959zM8.78 1.618s1.415.876 1.415 2.59c0 1.712-.827 2.458-1.872 3.38-1.046.923-.436 1.471 1.197 2.634 1.633 1.162 2.09 3.734-.022 5.6C7.386 17.687.963 17.437.963 13.976c0-3.461 4.833-3.514 5.227-3.514.391 0 .457-.109.13-.46-.327-.35-.851-1.031-.239-1.777-1.09.044-4.094-.549-4.094-3.315S4.882.959 5.926.959h5.204s-.238.199-.783.504c-.545.308-1.567.155-1.567.155zM2.813 13.34c0 1.602 1.154 2.677 3.308 2.677 2.152 0 3.42-.724 3.42-2.216 0-1.495-1.423-2.241-2.22-2.855-2.94 0-4.508.79-4.508 2.394zM5.709 1.487c-3.048 0-1.873 6.056.719 6.056 3.44 0 1.654-6.145-.719-6.056z"/></symbol><symbol viewBox="0 0 16 16" id="leaf" xmlns="http://www.w3.org/2000/svg"><path fill-rule="evenodd" d="M15.032.715L15.03.592l.002.123zm0 .008V.715v.008zm.001.338l-.001-.338.001.338zm0 .024v-.024.024zm-.018 1.243l.002-.059-.002.058v.001zM7.506 15.98a6.482 6.482 0 01-3.582-1.104c2.995-4.834 6.724-9.544 11.091-12.548-.078 2.92-.474 8.743-2.374 11.157a6.521 6.521 0 01-5.135 2.495zm-3.989-1.367c.13.101.271.174.407.263l-.012.019a7.111 7.111 0 01-.395-.282zM15.028 1.686zm.002-.095l-.002.095.002-.095zm.003-.506zM2.38 5.319c.924-1.173 2.712-2.184 4.629-2.999-2.041 3.411-3.698 7.23-5.013 10.625a6.605 6.605 0 01.384-7.626z"/></symbol><symbol viewBox="0 0 28 28" id="leave" xmlns="http://www.w3.org/2000/svg"><path fill-rule="evenodd" d="M1.749 24.498h8.75c.607 0 1.116-.328 1.43-.796l.026.017 2.981-4.471h1.572l4.741 7.901.025-.015c.306.507.839.864 1.475.864a1.75 1.75 0 001.75-1.75c0-.33-.116-.621-.275-.884l.026-.016-5.25-8.75-.026.015c-.306-.508-.839-.864-1.475-.864h-1.365l.631-3.154 5.116 2.923.014-.024c.256.147.537.255.854.255.607 0 1.116-.328 1.43-.798l.026.019 3.5-5.251-.026-.017c.186-.279.32-.594.32-.954a1.75 1.75 0 00-1.75-1.75c-.607 0-1.115.329-1.429.797l-.027-.017-2.594 3.891-10.831-6.19-.014.024c-.256-.147-.538-.255-.855-.255-.684 0-1.261.403-1.549.976l-.016-.008-3.5 7 .016.008a1.706 1.706 0 00-.201.775c0 .966.784 1.75 1.75 1.75.685 0 1.262-.403 1.55-.976l.016.008 2.672-5.346 2.324 1.329-1.21 6.052-2.788 4.182H1.749a1.75 1.75 0 000 3.5zm17.5-17.5a3.5 3.5 0 10.001-6.999 3.5 3.5 0 00-.001 6.999z"/></symbol><symbol viewBox="0 0 35 22" id="newsArrow" xmlns="http://www.w3.org/2000/svg"><path fill-rule="evenodd" d="M17.391.396l17.213 21.213H.177L17.391.396z"/></symbol><symbol viewBox="0 0 22 36" id="newsArrow2" xmlns="http://www.w3.org/2000/svg"><path fill-rule="evenodd" d="M.787 18L22 .786v34.427L.787 18z"/></symbol><symbol viewBox="0 0 27 32" id="play" xmlns="http://www.w3.org/2000/svg"><path fill-rule="evenodd" d="M27 15.999L0 31.588V.41l27 15.589z"/></symbol><symbol viewBox="0 0 18 22" id="readMore" xmlns="http://www.w3.org/2000/svg"><path fill-rule="evenodd" d="M18.005 10.997L-.005.001v21.992l18.01-10.996z"/></symbol><symbol viewBox="0 0 11 12" id="rocket" xmlns="http://www.w3.org/2000/svg"><path fill-rule="evenodd" d="M8.25 10.502v-.769a3.63 3.63 0 01-.688.752v.391L5.5 11.999l-2.063-1.123v-.391a3.597 3.597 0 01-.687-.752v.769L0 11.999l1.375-4.49.483-.351.204.222V5.263l.002-.022.007-.146c-.003-.031-.009-.061-.009-.094 0-2.29 3.173-4.884 3.173-4.884s.265-.214.529 0c.264.216 3.173 2.594 3.173 4.884 0 .033-.006.063-.009.094l.007.141.002.027V7.38l.204-.222.484.351L11 11.999l-2.75-1.497zM5.5 3.018c-.76 0-1.375.671-1.375 1.496 0 .828.615 1.498 1.375 1.498.759 0 1.375-.67 1.375-1.498 0-.825-.616-1.496-1.375-1.496z"/></symbol><symbol viewBox="0 0 20 20" id="search" xmlns="http://www.w3.org/2000/svg"><path fill-rule="evenodd" d="M19.622 17.849l-4.918-4.891a8.043 8.043 0 001.623-4.845c0-4.486-3.656-8.123-8.167-8.123-4.51 0-8.167 3.637-8.167 8.123 0 4.485 3.657 8.122 8.167 8.122a8.155 8.155 0 004.751-1.524l4.934 4.907c.49.487 1.286.487 1.777 0 .49-.489.49-1.28 0-1.769zM8.16 13.736c-3.122 0-5.654-2.517-5.654-5.623 0-3.105 2.532-5.625 5.654-5.625 3.123 0 5.654 2.52 5.654 5.625 0 3.106-2.531 5.623-5.654 5.623z"/></symbol><symbol viewBox="0 0 22 17" id="twitter" xmlns="http://www.w3.org/2000/svg"><path fill-rule="evenodd" d="M17.595 3.368c-.013-.007-.027-.022-.041-.036a3.983 3.983 0 00-2.9-1.041l-.034-.075c.007-.007.013-.007.02-.007 1.008-.221 1.605-.447 1.783-.693.062-.198-.014-.308-.233-.336a6.044 6.044 0 00-1.392.322c.528-.322.733-.548.617-.665-.521.014-1.083.269-1.673.769.219-.357.302-.549.247-.583a4.74 4.74 0 00-.74.595c-.446.474-.803.913-1.077 1.311l-.014.034c-.705 1.09-1.199 2.186-1.494 3.305l-.11.082-.02.02a5.542 5.542 0 00-1.542-1.276c-.72-.445-1.564-.87-2.537-1.281a22.192 22.192 0 00-3.229-1.289c-.007 1.159.589 2.084 1.776 2.756v.021a3.948 3.948 0 00-1.214.171c.075 1.076.878 1.816 2.399 2.228l-.007.02c-.596-.033-1.09.165-1.473.576.5.933 1.384 1.378 2.667 1.344-.254.124-.453.259-.583.411a.823.823 0 00-.233.823c.274.473.768.692 1.494.658l.041.048-.02.02c-1.255 1.235-2.77 1.79-4.546 1.674l-.027.013c-1.083-.008-2.242-.5-3.496-1.487 1.261 1.726 2.934 2.974 5.004 3.757 2.372.747 4.745.802 7.109.163h.041c2.297-.631 4.244-1.926 5.848-3.886.74-1.028 1.207-2.008 1.392-2.949 1.2.042 2.064-.287 2.598-.986l-.013-.021c-.398.137-1.18.096-2.338-.13v-.124c0-.006 0-.006.007 0 1.268-.137 2.015-.526 2.255-1.172-.884.329-1.755.336-2.619.028-.157-1.139-.719-2.174-1.693-3.112z"/></symbol></svg>