<svg xmlns="http://www.w3.org/2000/svg" width="16" height="16"><path fill-rule="evenodd" fill="#FFF" d="M8-.002a8.002 8.002 0 10.001 16.003A8.002 8.002 0 008-.002zm4.902 4.149a6.196 6.196 0 011.331 3.559 12.376 12.376 0 00-2.552-.285h-.006c-.64 0-1.242.058-1.808.158a28.64 28.64 0 00-.418-.972c1.262-.553 2.473-1.341 3.453-2.46zM8 1.757a6.2 6.2 0 013.892 1.372c-.818.98-1.898 1.689-3.065 2.191-.82-1.586-1.613-2.72-2.154-3.414A6.182 6.182 0 018 1.757zm-2.757.651c.433.512 1.301 1.638 2.227 3.395-1.884.561-3.782.693-4.93.693l-.097-.001h-.001c-.193 0-.359-.003-.498-.007a6.264 6.264 0 013.299-4.08zM1.757 8l.003-.09c.178.006.407.012.682.012h.002c1.254-.008 3.445-.113 5.665-.814.122.265.241.54.36.827a9.851 9.851 0 00-3.514 2.072 10.708 10.708 0 00-1.722 2.008A6.206 6.206 0 011.757 8zM8 14.242a6.201 6.201 0 01-3.709-1.23 9.09 9.09 0 011.448-1.783 8.49 8.49 0 013.244-1.963 30.714 30.714 0 011.232 4.568A6.218 6.218 0 018 14.242zm3.533-1.108A31.986 31.986 0 0010.38 8.94a8.885 8.885 0 011.281-.092h.018c.744 0 1.563.093 2.45.295a6.241 6.241 0 01-2.596 3.991z"/></svg>