<svg xmlns="http://www.w3.org/2000/svg" width="17" height="17"><path fill-rule="evenodd" fill="#FFF" d="M15.015 3.992v1.973h-1.017V3.992h-1.993V2.969h1.993V.999h1.017v1.97h1.959v1.023h-1.959zM8.78 1.618s1.415.876 1.415 2.59c0 1.712-.827 2.458-1.872 3.38-1.046.923-.436 1.471 1.197 2.634 1.633 1.162 2.09 3.734-.022 5.6C7.386 17.687.963 17.437.963 13.976c0-3.461 4.833-3.514 5.227-3.514.391 0 .457-.109.13-.46-.327-.35-.851-1.031-.239-1.777-1.09.044-4.094-.549-4.094-3.315S4.882.959 5.926.959h5.204s-.238.199-.783.504c-.545.308-1.567.155-1.567.155zM2.813 13.34c0 1.602 1.154 2.677 3.308 2.677 2.152 0 3.42-.724 3.42-2.216 0-1.495-1.423-2.241-2.22-2.855-2.94 0-4.508.79-4.508 2.394zM5.709 1.487c-3.048 0-1.873 6.056.719 6.056 3.44 0 1.654-6.145-.719-6.056z"/></svg>