<svg xmlns="http://www.w3.org/2000/svg" width="16" height="16"><path fill-rule="evenodd" fill="#FFF" d="M15.032.715L15.03.592l.002.123zm0 .008V.715v.008zm.001.338l-.001-.338.001.338zm0 .024v-.024.024zm-.018 1.243l.002-.059-.002.058v.001zM7.506 15.98a6.482 6.482 0 01-3.582-1.104c2.995-4.834 6.724-9.544 11.091-12.548-.078 2.92-.474 8.743-2.374 11.157a6.521 6.521 0 01-5.135 2.495zm-3.989-1.367c.13.101.271.174.407.263l-.012.019a7.111 7.111 0 01-.395-.282zM15.028 1.686zm.002-.095l-.002.095.002-.095zm.003-.506zM2.38 5.319c.924-1.173 2.712-2.184 4.629-2.999-2.041 3.411-3.698 7.23-5.013 10.625a6.605 6.605 0 01.384-7.626z"/></svg>