<svg xmlns="http://www.w3.org/2000/svg" width="28" height="28"><path fill-rule="evenodd" d="M1.749 24.498h8.75c.607 0 1.116-.328 1.43-.796l.026.017 2.981-4.471h1.572l4.741 7.901.025-.015c.306.507.839.864 1.475.864a1.75 1.75 0 001.75-1.75c0-.33-.116-.621-.275-.884l.026-.016-5.25-8.75-.026.015c-.306-.508-.839-.864-1.475-.864h-1.365l.631-3.154 5.116 2.923.014-.024c.256.147.537.255.854.255.607 0 1.116-.328 1.43-.798l.026.019 3.5-5.251-.026-.017c.186-.279.32-.594.32-.954a1.75 1.75 0 00-1.75-1.75c-.607 0-1.115.329-1.429.797l-.027-.017-2.594 3.891-10.831-6.19-.014.024c-.256-.147-.538-.255-.855-.255-.684 0-1.261.403-1.549.976l-.016-.008-3.5 7 .016.008a1.706 1.706 0 00-.201.775c0 .966.784 1.75 1.75 1.75.685 0 1.262-.403 1.55-.976l.016.008 2.672-5.346 2.324 1.329-1.21 6.052-2.788 4.182H1.749a1.75 1.75 0 000 3.5zm17.5-17.5a3.5 3.5 0 10.001-6.999 3.5 3.5 0 00-.001 6.999z"/></svg>