<svg xmlns="http://www.w3.org/2000/svg" width="11" height="12"><path fill-rule="evenodd" d="M8.25 10.502v-.769a3.63 3.63 0 01-.688.752v.391L5.5 11.999l-2.063-1.123v-.391a3.597 3.597 0 01-.687-.752v.769L0 11.999l1.375-4.49.483-.351.204.222V5.263l.002-.022.007-.146c-.003-.031-.009-.061-.009-.094 0-2.29 3.173-4.884 3.173-4.884s.265-.214.529 0c.264.216 3.173 2.594 3.173 4.884 0 .033-.006.063-.009.094l.007.141.002.027V7.38l.204-.222.484.351L11 11.999l-2.75-1.497zM5.5 3.018c-.76 0-1.375.671-1.375 1.496 0 .828.615 1.498 1.375 1.498.759 0 1.375-.67 1.375-1.498 0-.825-.616-1.496-1.375-1.496z"/></svg>