<svg xmlns="http://www.w3.org/2000/svg" width="22" height="17"><path fill-rule="evenodd" fill="#FFF" d="M17.595 3.368c-.013-.007-.027-.022-.041-.036a3.983 3.983 0 00-2.9-1.041l-.034-.075c.007-.007.013-.007.02-.007 1.008-.221 1.605-.447 1.783-.693.062-.198-.014-.308-.233-.336a6.044 6.044 0 00-1.392.322c.528-.322.733-.548.617-.665-.521.014-1.083.269-1.673.769.219-.357.302-.549.247-.583a4.74 4.74 0 00-.74.595c-.446.474-.803.913-1.077 1.311l-.014.034c-.705 1.09-1.199 2.186-1.494 3.305l-.11.082-.02.02a5.542 5.542 0 00-1.542-1.276c-.72-.445-1.564-.87-2.537-1.281a22.192 22.192 0 00-3.229-1.289c-.007 1.159.589 2.084 1.776 2.756v.021a3.948 3.948 0 00-1.214.171c.075 1.076.878 1.816 2.399 2.228l-.007.02c-.596-.033-1.09.165-1.473.576.5.933 1.384 1.378 2.667 1.344-.254.124-.453.259-.583.411a.823.823 0 00-.233.823c.274.473.768.692 1.494.658l.041.048-.02.02c-1.255 1.235-2.77 1.79-4.546 1.674l-.027.013c-1.083-.008-2.242-.5-3.496-1.487 1.261 1.726 2.934 2.974 5.004 3.757 2.372.747 4.745.802 7.109.163h.041c2.297-.631 4.244-1.926 5.848-3.886.74-1.028 1.207-2.008 1.392-2.949 1.2.042 2.064-.287 2.598-.986l-.013-.021c-.398.137-1.18.096-2.338-.13v-.124c0-.006 0-.006.007 0 1.268-.137 2.015-.526 2.255-1.172-.884.329-1.755.336-2.619.028-.157-1.139-.719-2.174-1.693-3.112z"/></svg>