<svg
        xmlns="http://www.w3.org/2000/svg"
        xmlns:xlink="http://www.w3.org/1999/xlink"
        width="12px" height="12px">
    <path fill-rule="evenodd"
          d="M10.500,8.998 L9.000,8.998 L8.250,8.998 L7.060,8.998 L4.280,11.779 L4.280,11.779 C4.144,11.914 3.957,11.999 3.750,11.999 C3.336,11.999 3.000,11.663 3.000,11.248 L3.000,8.998 L2.250,8.998 L1.500,8.998 C0.671,8.998 -0.000,8.327 -0.000,7.499 L-0.000,1.499 C-0.000,0.671 0.671,-0.001 1.500,-0.001 L10.500,-0.001 C11.328,-0.001 12.000,0.671 12.000,1.499 L12.000,7.499 C12.000,8.327 11.328,8.998 10.500,8.998 ZM10.500,2.249 C10.500,1.835 10.164,1.499 9.750,1.499 L2.250,1.499 C1.836,1.499 1.500,1.835 1.500,2.249 L1.500,6.748 C1.500,7.163 1.836,7.499 2.250,7.499 L3.000,7.499 L3.750,7.499 C4.164,7.499 4.500,7.834 4.500,8.248 L4.500,9.438 L6.219,7.718 L6.219,7.718 C6.355,7.582 6.543,7.499 6.750,7.499 L8.250,7.499 L9.000,7.499 L9.750,7.499 C10.164,7.499 10.500,7.163 10.500,6.748 L10.500,2.249 Z"/>
</svg>