<svg
        xmlns="http://www.w3.org/2000/svg"
        xmlns:xlink="http://www.w3.org/1999/xlink"
        width="16px" height="16px">
    <path fill-rule="evenodd"  fill="rgb(255, 255, 255)"
          d="M8.000,-0.002 C3.581,-0.002 -0.001,3.581 -0.001,8.000 C-0.001,12.418 3.581,16.000 8.000,16.000 C12.419,16.000 16.001,12.418 16.001,8.000 C16.001,3.581 12.419,-0.002 8.000,-0.002 ZM12.902,4.147 C13.683,5.138 14.171,6.366 14.233,7.706 C13.330,7.515 12.476,7.421 11.681,7.421 L11.681,7.421 L11.675,7.421 C11.035,7.421 10.433,7.479 9.867,7.579 C9.729,7.242 9.590,6.918 9.449,6.607 C10.711,6.054 11.922,5.266 12.902,4.147 ZM8.000,1.757 C9.472,1.757 10.823,2.272 11.892,3.129 C11.074,4.109 9.994,4.818 8.827,5.320 C8.007,3.734 7.214,2.600 6.673,1.906 C7.102,1.812 7.544,1.757 8.000,1.757 ZM5.243,2.408 C5.676,2.920 6.544,4.046 7.470,5.803 C5.586,6.364 3.688,6.496 2.540,6.496 C2.508,6.496 2.475,6.496 2.443,6.495 L2.442,6.495 C2.249,6.495 2.083,6.492 1.944,6.488 C2.392,4.696 3.620,3.211 5.243,2.408 ZM1.757,8.000 C1.757,7.971 1.759,7.941 1.760,7.910 C1.938,7.916 2.167,7.922 2.442,7.922 L2.444,7.922 C3.698,7.914 5.889,7.809 8.109,7.108 C8.231,7.373 8.350,7.648 8.469,7.935 C6.986,8.430 5.818,9.220 4.955,10.007 C4.123,10.765 3.562,11.515 3.233,12.015 C2.315,10.928 1.758,9.530 1.757,8.000 ZM8.000,14.242 C6.611,14.242 5.330,13.783 4.291,13.012 C4.513,12.649 4.986,11.950 5.739,11.229 C6.515,10.486 7.585,9.721 8.983,9.266 C9.458,10.597 9.888,12.120 10.215,13.834 C9.526,14.096 8.780,14.242 8.000,14.242 ZM11.533,13.134 C11.216,11.584 10.818,10.187 10.380,8.940 C10.786,8.881 11.212,8.848 11.661,8.848 L11.677,8.848 L11.678,8.848 L11.679,8.848 C12.423,8.848 13.242,8.941 14.129,9.143 C13.822,10.793 12.866,12.214 11.533,13.134 Z"/>
</svg>