<svg
        xmlns="http://www.w3.org/2000/svg"
        xmlns:xlink="http://www.w3.org/1999/xlink"
        width="17px" height="17px">
    <path fill-rule="evenodd"  fill="rgb(255, 255, 255)"
          d="M15.015,3.992 L15.015,5.965 L13.998,5.965 L13.998,3.992 L12.005,3.992 L12.005,2.969 L13.998,2.969 L13.998,0.999 L15.015,0.999 L15.015,2.969 L16.974,2.969 L16.974,3.992 L15.015,3.992 ZM8.780,1.618 C8.780,1.618 10.195,2.494 10.195,4.208 C10.195,5.920 9.368,6.666 8.323,7.588 C7.277,8.511 7.887,9.059 9.520,10.222 C11.153,11.384 11.610,13.956 9.498,15.822 C7.386,17.687 0.963,17.437 0.963,13.976 C0.963,10.515 5.796,10.462 6.190,10.462 C6.581,10.462 6.647,10.353 6.320,10.002 C5.993,9.652 5.469,8.971 6.081,8.225 C4.991,8.269 1.987,7.676 1.987,4.910 C1.987,2.144 4.882,0.959 5.926,0.959 C6.972,0.959 10.129,0.959 11.130,0.959 C11.130,0.959 10.892,1.158 10.347,1.463 C9.802,1.771 8.780,1.618 8.780,1.618 ZM2.813,13.340 C2.813,14.942 3.967,16.017 6.121,16.017 C8.273,16.017 9.541,15.293 9.541,13.801 C9.541,12.306 8.118,11.560 7.321,10.946 C4.381,10.946 2.813,11.736 2.813,13.340 ZM5.709,1.487 C2.661,1.487 3.836,7.543 6.428,7.543 C9.868,7.543 8.082,1.398 5.709,1.487 Z"/>
</svg>