<svg
        xmlns="http://www.w3.org/2000/svg"
        xmlns:xlink="http://www.w3.org/1999/xlink"
        width="16px" height="16px">
    <path fill-rule="evenodd"  fill="rgb(255, 255, 255)"
          d="M15.032,0.715 C15.031,0.636 15.030,0.593 15.030,0.592 C15.030,0.593 15.031,0.638 15.032,0.715 ZM15.032,0.723 C15.032,0.721 15.032,0.717 15.032,0.715 C15.032,0.717 15.032,0.721 15.032,0.723 ZM15.033,1.061 C15.033,0.916 15.033,0.802 15.032,0.723 C15.033,0.801 15.033,0.916 15.033,1.061 ZM15.033,1.085 C15.033,1.078 15.033,1.068 15.033,1.061 C15.033,1.068 15.033,1.077 15.033,1.085 ZM15.015,2.328 C15.015,2.309 15.016,2.288 15.017,2.269 C15.016,2.290 15.016,2.306 15.015,2.327 C15.015,2.328 15.015,2.328 15.015,2.328 ZM7.506,15.980 C6.264,15.980 5.022,15.604 3.924,14.876 C6.919,10.042 10.648,5.332 15.015,2.328 C14.937,5.248 14.541,11.071 12.641,13.485 C11.350,15.124 9.437,15.980 7.506,15.980 ZM3.517,14.613 C3.647,14.714 3.788,14.787 3.924,14.876 C3.920,14.883 3.916,14.889 3.912,14.895 C3.778,14.806 3.646,14.712 3.517,14.613 ZM15.028,1.686 C15.026,1.865 15.022,2.056 15.017,2.269 C15.022,2.058 15.026,1.863 15.028,1.686 ZM15.030,1.591 C15.029,1.620 15.029,1.655 15.028,1.686 C15.029,1.656 15.029,1.620 15.030,1.591 ZM15.033,1.085 C15.033,1.227 15.032,1.395 15.030,1.591 C15.032,1.396 15.033,1.227 15.033,1.085 ZM2.380,5.319 C3.304,4.146 5.092,3.135 7.009,2.320 C4.968,5.731 3.311,9.550 1.996,12.945 C0.533,10.647 0.601,7.578 2.380,5.319 Z"/>
</svg>