<svg
        xmlns="http://www.w3.org/2000/svg"
        xmlns:xlink="http://www.w3.org/1999/xlink"
        width="28px" height="28px">
    <path fill-rule="evenodd"  fill="rgb(0, 0, 0)"
          d="M1.749,24.498 L10.499,24.498 C11.106,24.498 11.615,24.170 11.929,23.702 L11.955,23.719 L14.936,19.248 L16.508,19.248 L21.249,27.149 L21.274,27.134 C21.580,27.641 22.113,27.998 22.749,27.998 C23.716,27.998 24.499,27.215 24.499,26.248 C24.499,25.918 24.383,25.627 24.224,25.364 L24.250,25.348 L19.000,16.598 L18.974,16.613 C18.668,16.105 18.135,15.749 17.499,15.749 L17.499,15.749 L16.134,15.749 L16.765,12.595 L21.881,15.518 L21.895,15.494 C22.151,15.641 22.432,15.749 22.749,15.749 C23.356,15.749 23.865,15.421 24.179,14.951 L24.205,14.970 L27.705,9.719 L27.679,9.702 C27.865,9.423 27.999,9.108 27.999,8.748 C27.999,7.782 27.216,6.998 26.249,6.998 C25.642,6.998 25.134,7.327 24.820,7.795 L24.793,7.778 L22.199,11.669 L11.368,5.479 L11.354,5.503 C11.098,5.356 10.816,5.248 10.499,5.248 C9.815,5.248 9.238,5.651 8.950,6.224 L8.934,6.216 L5.434,13.216 L5.450,13.224 C5.331,13.460 5.249,13.716 5.249,13.999 C5.249,14.965 6.033,15.749 6.999,15.749 C7.684,15.749 8.261,15.346 8.549,14.773 L8.565,14.781 L11.237,9.435 L13.561,10.764 L12.351,16.816 L9.563,20.998 L1.749,20.998 C0.783,20.998 -0.001,21.782 -0.001,22.748 C-0.001,23.715 0.783,24.498 1.749,24.498 ZM19.249,6.998 C21.182,6.998 22.749,5.432 22.749,3.498 C22.749,1.565 21.182,-0.001 19.249,-0.001 C17.316,-0.001 15.749,1.565 15.749,3.498 C15.749,5.432 17.316,6.998 19.249,6.998 Z"/>
</svg>