<svg
        xmlns="http://www.w3.org/2000/svg"
        xmlns:xlink="http://www.w3.org/1999/xlink"
        width="11px" height="12px">
    <path fill-rule="evenodd"
          d="M8.250,10.502 L8.250,9.733 C8.054,10.019 7.823,10.270 7.562,10.485 L7.562,10.876 L5.500,11.999 L3.437,10.876 L3.437,10.485 C3.176,10.270 2.945,10.019 2.750,9.733 L2.750,10.502 L-0.000,11.999 L1.375,7.509 L1.858,7.158 L2.062,7.380 L2.062,6.760 L2.062,5.288 C2.062,5.288 2.062,5.288 2.062,5.287 C2.062,5.287 2.062,5.286 2.062,5.285 L2.062,5.263 C2.062,5.256 2.064,5.248 2.064,5.241 C2.066,5.192 2.069,5.144 2.071,5.095 C2.068,5.064 2.062,5.034 2.062,5.001 C2.062,2.711 5.235,0.117 5.235,0.117 C5.235,0.117 5.500,-0.097 5.764,0.117 C6.028,0.333 8.937,2.711 8.937,5.001 C8.937,5.034 8.931,5.064 8.928,5.095 C8.930,5.142 8.933,5.189 8.935,5.236 C8.935,5.245 8.937,5.254 8.937,5.263 L8.937,6.760 L8.937,7.380 L9.141,7.158 L9.625,7.509 L11.000,11.999 L8.250,10.502 ZM5.500,3.018 C4.740,3.018 4.125,3.689 4.125,4.514 C4.125,5.342 4.740,6.012 5.500,6.012 C6.259,6.012 6.875,5.342 6.875,4.514 C6.875,3.689 6.259,3.018 5.500,3.018 Z"/>
</svg>