<svg
        xmlns="http://www.w3.org/2000/svg"
        xmlns:xlink="http://www.w3.org/1999/xlink"
        width="20px" height="20px">
    <path fill-rule="evenodd"
          d="M19.622,17.849 L14.704,12.958 C15.719,11.605 16.327,9.932 16.327,8.113 C16.327,3.627 12.671,-0.010 8.160,-0.010 C3.650,-0.010 -0.007,3.627 -0.007,8.113 C-0.007,12.598 3.650,16.235 8.160,16.235 C9.935,16.235 11.571,15.666 12.911,14.711 L17.845,19.618 C18.335,20.105 19.131,20.105 19.622,19.618 C20.112,19.129 20.112,18.338 19.622,17.849 ZM8.160,13.736 C5.038,13.736 2.506,11.219 2.506,8.113 C2.506,5.008 5.038,2.488 8.160,2.488 C11.283,2.488 13.814,5.008 13.814,8.113 C13.814,11.219 11.283,13.736 8.160,13.736 Z"/>
</svg>