<svg
        xmlns="http://www.w3.org/2000/svg"
        xmlns:xlink="http://www.w3.org/1999/xlink"
        width="22px" height="17px">
    <path fill-rule="evenodd"  fill="rgb(255, 255, 255)"
          d="M17.595,3.368 C17.582,3.361 17.568,3.346 17.554,3.332 C16.731,2.599 15.765,2.249 14.654,2.291 L14.620,2.216 C14.627,2.209 14.633,2.209 14.640,2.209 C15.648,1.988 16.245,1.762 16.423,1.516 C16.485,1.318 16.409,1.208 16.190,1.180 C15.682,1.242 15.216,1.345 14.798,1.502 C15.326,1.180 15.531,0.954 15.415,0.837 C14.894,0.851 14.332,1.106 13.742,1.606 C13.961,1.249 14.044,1.057 13.989,1.023 C13.708,1.208 13.461,1.407 13.249,1.618 C12.803,2.092 12.446,2.531 12.172,2.929 L12.158,2.963 C11.453,4.053 10.959,5.149 10.664,6.268 L10.554,6.350 L10.534,6.370 C10.109,5.863 9.601,5.438 8.992,5.094 C8.272,4.649 7.428,4.224 6.455,3.813 C5.392,3.292 4.316,2.860 3.226,2.524 C3.219,3.683 3.815,4.608 5.002,5.280 L5.002,5.301 C4.583,5.293 4.179,5.355 3.788,5.472 C3.863,6.548 4.666,7.288 6.187,7.700 L6.180,7.720 C5.584,7.687 5.090,7.885 4.707,8.296 C5.207,9.229 6.091,9.674 7.374,9.640 C7.120,9.764 6.921,9.899 6.791,10.051 C6.558,10.284 6.482,10.560 6.558,10.874 C6.832,11.347 7.326,11.566 8.052,11.532 L8.052,11.532 L8.093,11.580 C8.086,11.587 8.080,11.594 8.073,11.600 C6.818,12.835 5.303,13.390 3.527,13.274 L3.500,13.287 C2.417,13.279 1.258,12.787 0.004,11.800 C1.265,13.526 2.938,14.774 5.008,15.557 C7.380,16.304 9.753,16.359 12.117,15.720 L12.158,15.720 C14.455,15.089 16.402,13.794 18.006,11.834 C18.746,10.806 19.213,9.826 19.398,8.885 C20.598,8.927 21.462,8.598 21.996,7.899 L21.983,7.878 C21.585,8.015 20.803,7.974 19.645,7.748 L19.645,7.624 C19.645,7.618 19.645,7.618 19.652,7.624 C20.920,7.487 21.667,7.098 21.907,6.452 C21.023,6.781 20.152,6.788 19.288,6.480 C19.131,5.341 18.569,4.306 17.595,3.368 Z"/>
</svg>